<?xml version="1.0" encoding="UTF-8"?>
<svg id="Layer_2" data-name="Layer 2" xmlns="http://www.w3.org/2000/svg" viewBox="0 0 65.01 66.16">
  <defs>
    <style>
      .cls-1 {
        fill: #ff7431;
      }
    </style>
  </defs>
  <g id="Layer_1-2" data-name="Layer 1">
    <g>
      <path class="cls-1" d="M22.84,41.35l7.95-8.53c9.05-.91,15.69-10.91,9.92-19.09l5.65-6.16,8.18-.2,4.51-4.81h-14.46l-9.6,9.33c-2.04-.1-3.81-.66-6-.34-5.18.75-6.44,4.68-9.29,8-4.33,5.05-10.68,9.44-15.21,14.25-8.67,9.19,2.94,16.36,9.03,22.26,1.62,1.57,3.23,3.18,4.72,4.87-1.31.13-2.93-.18-4.19,0-2.77.4-4.99,4.01-5.66,5.22h39.27l-24.82-24.81ZM29.79,16.14c8.22-1.25,9.61,11.14,1.8,12.07-7.86.94-9.26-10.94-1.8-12.07ZM12.4,46.59c-7.51.61-8.56-10.33-2.06-11.54,8.76-1.63,9.76,10.91,2.06,11.54Z"/>
      <path class="cls-1" d="M59.99,21.75l-6.88,6.9c.74.52,2.5,3.03,3.32,2.81.52-.14,7-6.8,7.64-7.65.29-.39.87-.93.93-1.39l-.28-13.63-4.54,4.51-.2,8.45Z"/>
      <path class="cls-1" d="M.04,0h-.04v.05s.03-.03.04-.05Z"/>
    </g>
  </g>
</svg>