<?xml version="1.0" encoding="UTF-8"?>
<svg id="Layer_2" data-name="Layer 2" xmlns="http://www.w3.org/2000/svg" viewBox="0 0 184.13 106.17">
  <defs>
    <style>
      .cls-1 {
        fill: #ff7431;
      }
    </style>
  </defs>
  <g id="Layer_1-2" data-name="Layer 1">
    <g>
      <polygon class="cls-1" points="79.64 77.94 74.46 77.94 71.87 75.36 71.87 54.29 59.87 54.29 59.87 82.48 71.91 94.52 98.82 94.52 98.82 54.29 79.64 54.29 79.64 77.94"/>
      <polygon class="cls-1" points="126.24 54.29 126.24 54.29 122 57.96 117.76 54.29 117.76 54.29 102.52 54.29 102.52 94.52 112.27 94.52 112.27 75.91 115.29 73.97 118.3 75.91 118.3 94.52 125.49 94.52 125.49 75.91 128.73 73.97 131.53 75.91 131.53 94.52 141.48 94.52 141.48 54.29 126.24 54.29"/>
      <polygon class="cls-1" points="145.18 94.52 145.18 54.29 172.39 54.29 184.13 66.04 184.13 70.05 184.13 70.05 181.64 72.65 181.64 72.65 180.9 73.43 184.13 76.8 184.13 76.8 184.13 94.52 172.04 94.52 172.04 94.52 172.06 94.52 172.06 79.18 168.95 76.08 164.66 76.08 164.66 94.52 145.18 94.52"/>
      <g>
        <path class="cls-1" d="M36.66,66.35l12.76-13.69c14.52-1.45,25.18-17.51,15.91-30.63l9.06-9.89,13.13-.31,7.25-7.72h-23.2l-15.41,14.97c-3.28-.17-6.11-1.06-9.63-.55-8.31,1.21-10.34,7.51-14.91,12.85-6.95,8.1-17.13,15.16-24.41,22.87-13.91,14.75,4.72,26.25,14.5,35.73,2.6,2.52,5.18,5.11,7.58,7.82-2.1.22-4.7-.3-6.72,0-4.44.65-8.01,6.44-9.09,8.37h63.02l-39.83-39.82ZM47.82,25.91c13.19-2,15.42,17.88,2.89,19.38-12.61,1.5-14.87-17.56-2.89-19.38ZM19.89,74.78c-12.05.98-13.73-16.57-3.31-18.51,14.06-2.62,15.67,17.51,3.31,18.51Z"/>
        <path class="cls-1" d="M96.28,34.9l-11.04,11.07c1.18.83,4,4.86,5.33,4.51.84-.22,11.24-10.91,12.26-12.28.47-.62,1.4-1.5,1.5-2.22l-.45-21.88-7.28,7.25-.31,13.57Z"/>
        <path class="cls-1" d="M.06,0h-.06v.08s.04-.05.06-.08Z"/>
      </g>
    </g>
  </g>
</svg>
